<?xml version="1.0" encoding="iso-8859-1"?>
<!-- Generator: Adobe Illustrator 19.0.0, SVG Export Plug-In . SVG Version: 6.00 Build 0)  -->
<svg version="1.1" id="Capa_1" xmlns="http://www.w3.org/2000/svg" xmlns:xlink="http://www.w3.org/1999/xlink" x="0px" y="0px"
	 viewBox="0 0 512 512" style="enable-background:new 0 0 512 512;" xml:space="preserve">
<g>
	<g>
		<path d="M437.024,74.976C388.672,26.624,324.384,0,256,0S123.328,26.624,74.976,74.976S0,187.616,0,256
			s26.624,132.672,74.976,181.024S187.616,512,256,512s132.672-26.624,181.024-74.976C485.376,388.672,512,324.384,512,256
			S485.376,123.328,437.024,74.976z M479.2,239.296c-44.896-10.88-85.888-32.384-120.512-63.36l66.464-66.464
			C456.864,145.984,475.648,191.072,479.2,239.296z M402.528,86.848l-66.464,66.464c-30.976-34.624-52.48-75.616-63.36-120.512
			C320.928,36.352,366.016,55.104,402.528,86.848z M239.808,32.8c11.584,53.504,36.768,102.368,73.632,143.136L256,233.376
			L109.472,86.848C146.112,55.008,191.392,36.224,239.808,32.8z M86.848,109.472L233.376,256l-57.44,57.44
			c-40.768-36.864-89.6-62.048-143.136-73.632C36.224,191.424,55.008,146.112,86.848,109.472z M32.8,272.704
			c44.864,10.88,85.856,32.384,120.512,63.36l-66.464,66.464C55.136,366.016,36.352,320.928,32.8,272.704z M109.472,425.152
			l66.464-66.464c30.976,34.624,52.48,75.616,63.36,120.512C191.072,475.648,145.984,456.896,109.472,425.152z M272.192,479.2
			c-11.584-53.504-36.768-102.368-73.632-143.136l57.44-57.44l146.528,146.528C365.888,456.992,320.608,475.776,272.192,479.2z
			 M425.152,402.528L278.624,256l57.44-57.44c40.768,36.864,89.6,62.048,143.136,73.632
			C475.776,320.576,456.992,365.888,425.152,402.528z"/>
	</g>
</g>
<g>
</g>
<g>
</g>
<g>
</g>
<g>
</g>
<g>
</g>
<g>
</g>
<g>
</g>
<g>
</g>
<g>
</g>
<g>
</g>
<g>
</g>
<g>
</g>
<g>
</g>
<g>
</g>
<g>
</g>
</svg>
