<svg version="1.1" xmlns="http://www.w3.org/2000/svg" xmlns:xlink="http://www.w3.org/1999/xlink" viewBox="0 0 172 172"><g fill="none" fill-rule="nonzero" stroke="none" stroke-width="1" stroke-linecap="butt" stroke-linejoin="miter" stroke-miterlimit="10" stroke-dasharray="" stroke-dashoffset="0" font-family="none" font-weight="none" font-size="none" text-anchor="none" style="mix-blend-mode: normal"><path d="M0,172v-172h172v172z" fill="none"></path><g fill="#007dff"><path d="M150.9128,12.06408c-0.61232,-1.07672 -1.7544,-1.74408 -2.9928,-1.74408h-24.0284c-1.20744,0 -2.32888,0.63296 -2.95152,1.67184l-36.66008,61.15976l-36.66352,-61.15976c-0.6192,-1.03888 -1.74064,-1.67184 -2.94808,-1.67184h-24.0284c-1.2384,0 -2.38048,0.66736 -2.9928,1.74408c-0.61232,1.07672 -0.59512,2.40112 0.04472,3.46408l51.10808,85.31888v57.39296c0,1.89888 1.54112,3.44 3.44,3.44h24.08c1.89888,0 3.44,-1.54112 3.44,-3.44v-57.39296l51.10808,-85.31888c0.63984,-1.06296 0.65704,-2.38736 0.04472,-3.46408z"></path></g></g></svg>